<svg xmlns="http://www.w3.org/2000/svg" viewBox="0 0 640 520" role="img" aria-labelledby="logoTitle logoDesc">
  <title id="logoTitle">Abry Brothers Foundation Repair logo</title>
  <desc id="logoDesc">Contractor badge logo with roofline, foundation piers, and Pasadena Texas banner.</desc>
  <defs>
    <linearGradient id="navy" x1="0" x2="1" y1="0" y2="1">
      <stop offset="0" stop-color="#1E2E45"/>
      <stop offset="1" stop-color="#0F1D2D"/>
    </linearGradient>
    <linearGradient id="copper" x1="0" x2="1" y1="0" y2="1">
      <stop offset="0" stop-color="#C76A2A"/>
      <stop offset="1" stop-color="#8f441f"/>
    </linearGradient>
  </defs>
  <path d="M82 175 L185 92 L292 35 L410 125 L458 99 L575 198 L602 212 L602 403 L520 461 L410 462 L321 506 L230 462 L123 460 L38 404 L38 214 Z" fill="url(#navy)" stroke="#F3EFE8" stroke-width="16" stroke-linejoin="round"/>
  <path d="M96 194 L195 113 L291 62 L407 150 L458 126 L553 205" fill="none" stroke="#F3EFE8" stroke-width="16" stroke-linecap="square" stroke-linejoin="miter"/>
  <path d="M126 194 L205 130 L291 84 L403 166 L458 145 L530 205" fill="none" stroke="#0F1D2D" stroke-width="8" stroke-linejoin="miter"/>
  <path d="M210 134 L290 89 L395 166 L395 223 L210 223 Z" fill="#F3EFE8" stroke="#D2C3A5" stroke-width="6"/>
  <path d="M443 151 L523 205 L523 224 L443 224 Z" fill="#F3EFE8" stroke="#D2C3A5" stroke-width="6"/>
  <rect x="277" y="135" width="28" height="28" fill="#0F1D2D"/>
  <rect x="314" y="135" width="28" height="28" fill="#0F1D2D"/>
  <rect x="277" y="172" width="28" height="28" fill="#0F1D2D"/>
  <rect x="314" y="172" width="28" height="28" fill="#0F1D2D"/>
  <rect x="463" y="181" width="22" height="22" fill="#0F1D2D"/>
  <rect x="493" y="181" width="22" height="22" fill="#0F1D2D"/>
  <rect x="463" y="210" width="22" height="22" fill="#0F1D2D"/>
  <rect x="493" y="210" width="22" height="22" fill="#0F1D2D"/>
  <rect x="67" y="224" width="506" height="135" fill="#0F1D2D" stroke="#F3EFE8" stroke-width="8"/>
  <text x="320" y="312" fill="#F3EFE8" font-family="Oswald, Impact, sans-serif" font-size="82" font-weight="800" text-anchor="middle" letter-spacing="2">ABRY BROTHERS</text>
  <text x="320" y="354" fill="#C76A2A" font-family="Oswald, Impact, sans-serif" font-size="38" font-weight="800" text-anchor="middle" letter-spacing="4">FOUNDATION REPAIR</text>
  <rect x="115" y="360" width="430" height="26" fill="#8E8A82"/>
  <g fill="#C9C5BA" stroke="#333333" stroke-width="3">
    <rect x="150" y="398" width="70" height="44"/>
    <rect x="220" y="398" width="70" height="44"/>
    <rect x="185" y="442" width="70" height="34"/>
    <rect x="300" y="398" width="70" height="44"/>
    <rect x="370" y="398" width="70" height="44"/>
    <rect x="335" y="442" width="70" height="34"/>
  </g>
  <g fill="#5D6164">
    <rect x="207" y="384" width="28" height="14"/>
    <rect x="357" y="384" width="28" height="14"/>
  </g>
  <path d="M143 456 Q320 494 497 456 L456 499 L320 505 L184 499 Z" fill="url(#copper)" stroke="#F3EFE8" stroke-width="5"/>
  <text x="320" y="484" fill="#F3EFE8" font-family="Oswald, Impact, sans-serif" font-size="28" font-weight="800" text-anchor="middle" letter-spacing="3">PASADENA, TEXAS</text>
</svg>
